<?xml version="1.0" encoding="iso-8859-1"?>
<!-- Generator: Adobe Illustrator 19.0.0, SVG Export Plug-In . SVG Version: 6.00 Build 0)  -->
<!-- License: CC0. Made by SVG Repo: https://www.svgrepo.com/svg/273482/streetlight -->
<svg version="1.1" id="Layer_1" xmlns="http://www.w3.org/2000/svg" xmlns:xlink="http://www.w3.org/1999/xlink" x="0px" y="0px"
	 viewBox="0 0 512 512" style="enable-background:new 0 0 512 512;" xml:space="preserve">
<g transform="translate(0 -1)">
	<g>
		<path d="M382.696,133.011L341.25,66.696C339.276,29.945,295.243,1,247.46,1c-9.122,0-19.069,1.529-29.101,4.356
			C190.098,13.314,170.66,39.6,170.66,69.267V461.8c-23.563,0-42.667,19.104-42.667,42.667c0,4.713,3.82,8.533,8.533,8.533h119.467
			c4.713,0,8.533-3.821,8.533-8.533c0-23.563-19.104-42.667-42.667-42.667V69.267c0-7.484,14.756-17.067,34.133-17.067
			c17.739,0,31.596,8.03,33.814,15.13l-41.051,65.681c-3.552,5.684,0.534,13.056,7.236,13.056h17.922
			c3.954,19.474,21.171,34.133,41.811,34.133c20.64,0,37.858-14.659,41.811-34.133h17.922
			C382.162,146.067,386.248,138.694,382.696,133.011z M246.003,495.933h-99.486c3.515-9.942,12.998-17.067,24.143-17.067h8.533
			h34.133h8.533C233.005,478.867,242.488,485.991,246.003,495.933z M255.993,35.133c-27.654,0-51.2,15.291-51.2,34.133V461.8
			h-17.067V69.267c0-22.101,14.434-41.619,35.26-47.483c8.601-2.424,17.012-3.717,24.473-3.717
			c36.201,0,68.955,19.445,75.582,42.667H305.54C299.729,46.016,279.323,35.133,255.993,35.133z M315.727,163.133
			c-11.145,0-20.628-7.124-24.143-17.067h48.286C336.355,156.009,326.872,163.133,315.727,163.133z M349.86,129h-68.267h-10.204
			l32-51.2h24.674l32,51.2H349.86z"/>
	</g>
</g>
</svg>
