<svg version="1.1" id="Layer_1" xmlns="http://www.w3.org/2000/svg" xmlns:xlink="http://www.w3.org/1999/xlink" x="0px" y="0px"
	 viewBox="0 0 512 512" style="enable-background:new 0 0 512 512;" xml:space="preserve">
<g>
	<g>
		<path d="M255.999,82.767c-30.332,0-55.008,24.676-55.008,55.008s24.676,55.008,55.008,55.008s55.008-24.676,55.008-55.008
			S286.331,82.767,255.999,82.767z M255.999,176.202c-21.189,0-38.426-17.238-38.426-38.426s17.238-38.426,38.426-38.426
			s38.426,17.238,38.426,38.426S277.188,176.202,255.999,176.202z"/>
	</g>
</g>
<g>
	<g>
		<path d="M255.999,221.084c-30.332,0-55.008,24.676-55.008,55.008c0,10.026,2.728,19.845,7.891,28.395
			c2.367,3.92,7.463,5.18,11.383,2.812c3.92-2.367,5.179-7.463,2.812-11.383c-3.601-5.964-5.504-12.819-5.504-19.825
			c0-21.189,17.238-38.426,38.426-38.426s38.426,17.238,38.426,38.426s-17.238,38.426-38.426,38.426
			c-4.003,0-7.959-0.619-11.76-1.84c-4.358-1.398-9.028,0.999-10.429,5.359c-1.4,4.36,0.999,9.028,5.359,10.429
			c5.441,1.748,11.103,2.633,16.83,2.633c30.332,0,55.008-24.676,55.008-55.008C311.007,245.76,286.331,221.084,255.999,221.084z"/>
	</g>
</g>
<g>
	<g>
		<path d="M255.999,359.401c-30.332,0-55.008,24.676-55.008,55.008c0,30.332,24.676,55.008,55.008,55.008
			s55.008-24.676,55.008-55.008C311.007,384.078,286.331,359.401,255.999,359.401z M255.999,452.836
			c-21.189,0-38.426-17.238-38.426-38.426c0-21.189,17.238-38.426,38.426-38.426s38.426,17.238,38.426,38.426
			C294.425,435.598,277.188,452.836,255.999,452.836z"/>
	</g>
</g>
<g>
	<g>
		<path d="M330.505,40.757C328.14,17.891,308.762,0,285.282,0h-58.565c-23.48,0-42.859,17.891-45.223,40.757
			c-28.118,3.93-49.833,28.124-49.833,57.309v29.832c0,4.579,3.712,8.291,8.291,8.291c4.579,0,8.291-3.712,8.291-8.291V98.066
			c0-22.773,18.527-41.298,41.298-41.298h132.917c22.773,0,41.298,18.527,41.298,41.298v272.257c0,4.579,3.711,8.291,8.291,8.291
			c4.58,0,8.291-3.712,8.291-8.291V98.066C380.338,68.882,358.622,44.688,330.505,40.757z M198.316,40.185
			c2.488-13.414,14.276-23.603,28.401-23.603h58.565c14.124,0,25.912,10.189,28.401,23.603
			C313.683,40.185,198.316,40.185,198.316,40.185z"/>
	</g>
</g>
<g>
	<g>
		<path d="M372.047,395.197c-4.58,0-8.291,3.712-8.291,8.291v50.632c0,22.772-18.527,41.298-41.298,41.298H189.541
			c-22.772,0-41.298-18.527-41.298-41.298V161.062c0-4.579-3.712-8.291-8.291-8.291c-4.579,0-8.291,3.712-8.291,8.291V454.12
			c0,31.915,25.965,57.88,57.88,57.88h132.917c31.915,0,57.881-25.965,57.881-57.88v-50.632
			C380.338,398.909,376.627,395.197,372.047,395.197z"/>
	</g>
</g>
</svg>
